HIERARCHY
ROOT joint_Root
{
	OFFSET 0.0 0.0 0.0
	CHANNELS 6 Xposition Yposition Zposition Zrotation Xrotation Yrotation 
	JOINT Hips
	{
		OFFSET -17.1583 93.1646 452.98
		CHANNELS 6 Xposition Yposition Zposition Zrotation Xrotation Yrotation 
		JOINT Spine
		{
			OFFSET 15.7357 0.0 0.0
			CHANNELS 6 Xposition Yposition Zposition Zrotation Xrotation Yrotation 
			JOINT Chest
			{
				OFFSET 8.98455 -0.406207 0.0
				CHANNELS 6 Xposition Yposition Zposition Zrotation Xrotation Yrotation 
				JOINT Neck
				{
					OFFSET 16.3773 0.0 0.0
					CHANNELS 6 Xposition Yposition Zposition Zrotation Xrotation Yrotation 
					JOINT Head
					{
						OFFSET 6.45672 0.0 0.0
						CHANNELS 6 Xposition Yposition Zposition Zrotation Xrotation Yrotation 
						End Site
						{
							OFFSET 0.0 0.0 0.0
						}
					}
				}
				JOINT Shoulder_L
				{
					OFFSET 12.9942 -0.242716 4.98039
					CHANNELS 6 Xposition Yposition Zposition Zrotation Xrotation Yrotation 
					JOINT UpperArm_L
					{
						OFFSET 5.34809 0.0 0.0
						CHANNELS 6 Xposition Yposition Zposition Zrotation Xrotation Yrotation 
						JOINT LowerArm_L
						{
							OFFSET 24.3286 1.87007e-05 0.0
							CHANNELS 6 Xposition Yposition Zposition Zrotation Xrotation Yrotation 
							JOINT Hand_L
							{
								OFFSET 22.2916 0.0 0.0
								CHANNELS 6 Xposition Yposition Zposition Zrotation Xrotation Yrotation 
								End Site
								{
									OFFSET 0.0 0.0 0.0
								}
							}
						}
					}
				}
				JOINT Shoulder_R
				{
					OFFSET 12.9945 -0.242716 -4.98039
					CHANNELS 6 Xposition Yposition Zposition Zrotation Xrotation Yrotation 
					JOINT UpperArm_R
					{
						OFFSET -5.34813 0.0 0.0
						CHANNELS 6 Xposition Yposition Zposition Zrotation Xrotation Yrotation 
						JOINT LowerArm_R
						{
							OFFSET -24.3289 0.000322201 0.0
							CHANNELS 6 Xposition Yposition Zposition Zrotation Xrotation Yrotation 
							JOINT Hand_R
							{
								OFFSET -22.2915 -0.000108084 0.0
								CHANNELS 6 Xposition Yposition Zposition Zrotation Xrotation Yrotation 
								End Site
								{
									OFFSET 0.0 0.0 0.0
								}
							}
						}
					}
				}
			}
		}
		JOINT UpperLeg_L
		{
			OFFSET -2.19248 -6.46944 0.0
			CHANNELS 6 Xposition Yposition Zposition Zrotation Xrotation Yrotation 
			JOINT LowerLeg_L
			{
				OFFSET 39.0811 0.0 -1.23785e-05
				CHANNELS 6 Xposition Yposition Zposition Zrotation Xrotation Yrotation 
				JOINT Foot_L
				{
					OFFSET 40.9854 0.0 -1.26872e-05
					CHANNELS 6 Xposition Yposition Zposition Zrotation Xrotation Yrotation 
					JOINT Toes_L
					{
						OFFSET 11.7543 0.0 0.0
						CHANNELS 6 Xposition Yposition Zposition Zrotation Xrotation Yrotation 
						End Site
						{
							OFFSET 0.0 0.0 0.0
						}
					}
				}
			}
		}
		JOINT UpperLeg_R
		{
			OFFSET -2.19251 6.46944 0.0
			CHANNELS 6 Xposition Yposition Zposition Zrotation Xrotation Yrotation 
			JOINT LowerLeg_R
			{
				OFFSET -39.0811 -0.00228153 -0.0401928
				CHANNELS 6 Xposition Yposition Zposition Zrotation Xrotation Yrotation 
				JOINT Foot_R
				{
					OFFSET -40.9854 0.0 0.0
					CHANNELS 6 Xposition Yposition Zposition Zrotation Xrotation Yrotation 
					JOINT Toes_R
					{
						OFFSET -11.7543 0.0 0.0
						CHANNELS 6 Xposition Yposition Zposition Zrotation Xrotation Yrotation 
						End Site
						{
							OFFSET 0.0 0.0 0.0
						}
					}
				}
			}
		}
	}
}
MOTION
Frames:	6
Frame Time:	0.0333333
0.000000 0.000000 0.000000 0.000000 0.000000 -0.000000 -0.911298 92.407000 4.135950 88.746800 0.710289 3.560030 15.735700 0.000005 -0.000001 69.375400 89.491800 -67.434700 8.984550 -0.406207 -0.000000 -6.801670 -0.603839 3.851690 16.377300 -0.000001 -0.000001 -4.307830 3.979630 -3.970940 6.456720 -0.000001 -0.000000 5.483640 4.415550 -7.217510 12.994200 -0.242716 4.980390 -88.195900 -3.539670 -62.970300 5.348090 -0.000007 -0.000001 -38.802700 -58.339500 -101.217000 24.328600 0.000019 0.000005 9.751100 41.644100 -14.498900 22.291600 -0.000001 0.000005 59.926100 4.684030 13.444000 12.994500 -0.242716 -4.980390 94.865100 -9.683080 -63.158200 -5.348130 -0.000001 -0.000004 -56.695400 -62.122000 -116.871000 -24.328900 0.000322 -0.000009 6.075130 13.246700 -24.916100 -22.291500 -0.000108 -0.000004 46.108900 5.682060 -21.307300 -2.192480 -6.469440 -0.000000 -172.509000 -6.299090 4.304790 39.081100 -0.000007 -0.000012 0.009424 -0.033360 15.774700 40.985400 -0.000006 -0.000013 -0.494338 16.398900 -71.338400 11.754300 -0.000000 0.000003 -0.001378 0.188265 -8.939410 -2.192510 6.469440 -0.000001 176.033000 5.259030 -173.879000 -39.081100 -0.002282 -0.040193 0.005345 -0.008233 13.736500 -40.985400 0.000008 0.000006 -7.586120 3.600700 -71.044800 -11.754300 -0.000006 -0.000006 -0.011021 0.278784 -5.244970
0.000000 0.000000 0.000000 0.000000 0.000000 -0.000000 -0.924100 92.436500 3.994230 88.707200 0.644240 3.437960 15.735700 0.000005 -0.000001 70.470900 89.424100 -68.522000 8.984550 -0.406207 -0.000000 -6.666990 -0.629565 3.867160 16.377300 -0.000001 -0.000001 -4.189230 3.758390 -3.656220 6.456720 -0.000001 -0.000000 5.065190 4.407940 -7.096660 12.994200 -0.242716 4.980390 -88.284000 -3.352010 -62.869500 5.348090 -0.000007 -0.000001 -40.722800 -57.432900 -100.832000 24.328600 0.000019 0.000005 5.986020 35.610800 -10.207200 22.291600 -0.000001 0.000005 56.785400 4.614830 14.664800 12.994500 -0.242716 -4.980390 94.794300 -9.490950 -63.039800 -5.348130 -0.000001 -0.000004 -56.457900 -61.607800 -115.075000 -24.328900 0.000322 -0.000009 3.755460 9.721500 -21.242600 -22.291500 -0.000108 -0.000004 44.528000 5.678340 -19.002200 -2.192480 -6.469440 -0.000000 -172.514000 -6.223590 4.101390 39.081100 -0.000007 -0.000012 0.010178 -0.036127 15.734200 40.985400 -0.000006 -0.000013 -0.545186 16.255800 -71.208500 11.754300 -0.000000 0.000003 -0.001126 0.184808 -9.079960 -2.192510 6.469440 -0.000001 176.113000 5.203560 -174.087000 -39.081100 -0.002282 -0.040193 0.005583 -0.009251 13.671300 -40.985400 0.000008 0.000006 -7.552840 3.587290 -70.946200 -11.754300 -0.000006 -0.000006 -0.011201 0.280074 -5.192180
0.000000 0.000000 0.000000 0.000000 0.000000 -0.000000 -0.947155 92.465700 3.890640 88.662900 0.506350 3.278780 15.735700 0.000005 -0.000001 73.638100 89.409600 -71.712100 8.984550 -0.406207 -0.000000 -6.620580 -0.573629 3.824770 16.377300 -0.000001 -0.000001 -3.951630 3.439820 -3.271680 6.456720 -0.000001 -0.000000 4.766620 4.254490 -6.949260 12.994200 -0.242716 4.980390 -88.386100 -3.134220 -62.736900 5.348090 -0.000007 -0.000001 -42.008300 -56.679700 -99.000400 24.328600 0.000019 0.000005 2.898150 26.994000 -6.360810 22.291600 -0.000001 0.000005 52.762900 4.483070 16.885600 12.994500 -0.242716 -4.980390 94.650700 -9.150160 -62.907500 -5.348130 -0.000001 -0.000004 -56.476900 -60.933500 -112.322000 -24.328900 0.000322 -0.000009 1.409190 4.558120 -17.198000 -22.291500 -0.000108 -0.000004 42.792800 5.657160 -15.716500 -2.192480 -6.469440 -0.000000 -172.487000 -6.319250 3.953470 39.081100 -0.000007 -0.000012 0.009199 -0.032889 15.627100 40.985400 -0.000006 -0.000013 -0.586401 16.204300 -71.147800 11.754300 -0.000000 0.000003 -0.001236 0.186331 -9.018020 -2.192510 6.469440 -0.000001 176.173000 5.260320 -174.281000 -39.081100 -0.002282 -0.040193 0.005908 -0.010691 13.545800 -40.985400 0.000008 0.000006 -7.521720 3.690980 -70.783400 -11.754300 -0.000006 -0.000006 -0.011018 0.278758 -5.246030
0.000000 0.000000 0.000000 0.000000 0.000000 -0.000000 -0.982152 92.490800 3.806990 88.582100 0.389512 3.089090 15.735700 0.000005 -0.000001 77.346800 89.408400 -75.426900 8.984550 -0.406207 -0.000000 -6.600450 -0.499182 3.816720 16.377300 -0.000001 -0.000001 -3.641300 3.181130 -2.979470 6.456720 -0.000001 -0.000000 4.502690 4.050890 -6.866940 12.994200 -0.242716 4.980390 -88.538700 -2.829070 -62.667000 5.348090 -0.000007 -0.000001 -44.048800 -55.992100 -96.985700 24.328600 0.000019 0.000005 0.852070 17.878700 -2.768820 22.291600 -0.000001 0.000005 48.396800 4.304070 19.740200 12.994500 -0.242716 -4.980390 94.544700 -8.865790 -62.717600 -5.348130 -0.000001 -0.000004 -55.596600 -60.542500 -107.735000 -24.328900 0.000322 -0.000009 -0.254232 -1.088440 -13.151700 -22.291500 -0.000108 -0.000004 41.209000 5.605550 -11.669800 -2.192480 -6.469440 -0.000000 -172.442000 -6.238050 3.752670 39.081100 -0.000007 -0.000012 0.009122 -0.032764 15.558200 40.985400 -0.000006 -0.000013 -0.669776 15.973700 -71.077300 11.754300 -0.000000 0.000003 -0.001215 0.186041 -9.029840 -2.192510 6.469440 -0.000001 176.312000 5.264550 -174.452000 -39.081100 -0.002282 -0.040193 0.006601 -0.013772 13.350700 -40.985400 0.000008 0.000006 -7.342250 3.729060 -70.635300 -11.754300 -0.000006 -0.000006 -0.010799 0.277178 -5.310710
0.000000 0.000000 0.000000 0.000000 0.000000 -0.000000 -1.029100 92.521000 3.712760 88.501400 0.248162 2.873440 15.735700 0.000005 -0.000001 80.246600 89.394100 -78.332800 8.984550 -0.406207 -0.000000 -6.561520 -0.443987 3.807880 16.377300 -0.000001 -0.000001 -3.459690 2.948980 -2.766550 6.456720 -0.000001 -0.000000 4.286480 3.964400 -6.843590 12.994200 -0.242716 4.980390 -88.727300 -2.466740 -62.697600 5.348090 -0.000007 -0.000001 -47.682000 -55.701900 -95.275200 24.328600 0.000019 0.000005 0.000933 9.338440 -0.000000 22.291600 -0.000001 0.000005 44.108800 4.085960 23.003200 12.994500 -0.242716 -4.980390 94.422500 -8.543360 -62.497900 -5.348130 -0.000001 -0.000004 -53.902900 -60.189200 -101.854000 -24.328900 0.000322 -0.000009 -0.944502 -6.114590 -8.799800 -22.291500 -0.000108 -0.000004 39.477300 5.510160 -6.942080 -2.192480 -6.469440 -0.000000 -172.393000 -6.248240 3.547890 39.081100 -0.000007 -0.000012 0.010739 -0.038817 15.465000 40.985400 -0.000006 -0.000013 -0.745172 15.790400 -71.053400 11.754300 -0.000000 0.000003 -0.001078 0.184138 -9.107170 -2.192510 6.469440 -0.000001 176.427000 5.293220 -174.658000 -39.081100 -0.002282 -0.040193 0.006136 -0.011997 13.147200 -40.985400 0.000008 0.000006 -7.316990 3.867100 -70.429600 -11.754300 -0.000006 -0.000006 -0.011078 0.279192 -5.228260
0.000000 0.000000 0.000000 0.000000 0.000000 -0.000000 -1.081600 92.543200 3.608840 88.426000 0.125611 2.691380 15.735700 0.000005 -0.000001 80.016600 89.333100 -78.086200 8.984550 -0.406207 -0.000000 -6.441610 -0.469966 3.839880 16.377300 -0.000001 -0.000001 -3.353530 2.881460 -2.762620 6.456720 -0.000001 -0.000000 3.924030 3.930400 -6.861280 12.994200 -0.242716 4.980390 -88.912100 -2.151770 -63.170400 5.348090 -0.000007 -0.000001 -51.948400 -56.532800 -92.618200 24.328600 0.000019 0.000005 0.000985 -0.378276 0.000000 22.291600 -0.000001 0.000005 40.380400 3.843570 26.416200 12.994500 -0.242716 -4.980390 94.391100 -8.358950 -62.156100 -5.348130 -0.000001 -0.000004 -52.723300 -59.395700 -96.163400 -24.328900 0.000322 -0.000009 -0.798176 -12.457000 -3.700990 -22.291500 -0.000108 -0.000004 37.805200 5.387030 -2.506330 -2.192480 -6.469440 -0.000000 -172.326000 -6.216730 3.326670 39.081100 -0.000007 -0.000012 0.010031 -0.036356 15.425300 40.985400 -0.000006 -0.000013 -0.820362 15.662900 -70.974700 11.754300 -0.000000 0.000003 -0.001026 0.183403 -9.137060 -2.192510 6.469440 -0.000001 176.556000 5.249070 -174.913000 -39.081100 -0.002282 -0.040193 0.006422 -0.013277 13.093200 -40.985400 0.000008 0.000006 -7.339350 3.928460 -70.315800 -11.754300 -0.000006 -0.000006 -0.010990 0.278562 -5.254080
